<svg xmlns="http://www.w3.org/2000/svg" width="15" height="15" viewBox="0 0 15 15"><path fill="none" stroke="#000" stroke-width="84.329" stroke-linecap="round" stroke-linejoin="round" d="M954.248 470.317c-1.385-8.794-.783-18.25-2.89-26.865-2.11-8.553-7.832-16.444-10.663-24.937-2.77-8.433-13.252-14.095-16.504-22.287-3.312-8.312 1.326-19.697-2.408-27.708s-18.372-11.083-22.468-19.034c-4.096-7.83 7.228-23.492 2.89-31.322s-22.407-8.252-26.864-15.962c-4.518-7.71-7.47-16.264-12.047-23.853-4.457-7.41-4.578-17.35-9.517-24.517-4.94-7.228-9.035-15.3-15.24-21.564-4.94-5.18-14.276-5.663-20.058-10.06-5.722-4.397-11.866-8.01-17.83-12.168-8.433-6.024-10.36-20.72-18.914-26.684-8.553-6.024-25.058-1.205-33.61-7.228-8.434-6.024-16.867-12.288-25.3-18.25-7.35-5.12-7.83-19.638-15.18-24.577-7.468-5-20.48-1.566-28.31-6.024-7.71-4.58-12.168-14.76-20.36-18.493-7.95-3.614-16.685-6.024-24.998-8.915-5.716-2.132-14.15-4.77-22.71-7.108-11.022-2.89-20.66-.964-29.093-2.83-8.614-1.808-17.468-2.53-26.022-4.217-9.034-1.807-18.07-4.216-27.105-5.903-9.276-1.566-18.07-5.42-27.287-6.626-9.276-1.205-18.312-6.144-27.528-6.626-9.397-.422-18.552 9.216-27.83 9.758-9.335.602-17.166 3.614-26.262 5.602-9.035 1.807-16.264 4.518-24.998 8.01-9.397 3.796-22.77-1.204-31.443 3.856-8.553 5-17.468 9.758-25.9 15.06-7.01 4.244-15.585 8.787-24.405 12.887-11.375 5.303-19.507 12.772-29.566 16.266-10.12 3.615-18.07 11.867-27.95 15.903-8.25 3.373-15.9 6.445-23.732 10.662-7.83 4.337-20.72.723-28.01 5.783-7.227 5.06-7.65 18.312-14.275 24.094-6.627 5.722-17.83 6.867-23.854 13.252s-9.88 14.456-15.18 21.504c-5.24 6.927-18.37 9.397-22.888 16.866s7.048 22.89 3.373 30.72c-3.613 7.83-8.432 14.456-11.323 22.71-2.77 8.19-13.01 14.154-14.818 22.587s-10.663 16.385-11.446 25c-.964 8.733 9.216 18.43 8.674 27.225-.482 8.734.964 17.95-.36 26.684-1.206 8.19-.362 17.467-2.59 25.54-2.17 7.95-17.108 12.648-19.577 20.6-2.408 7.95 9.036 19.274 7.23 27.406-2.17 8.794-5.18 16.685-6.326 25.54-1.205 9.035-16.143 16.866-16.565 25.78-.362 9.036 7.227 18.252 7.468 27.288s-3.614 18.19-3.012 27.106c.602 9.035 5.3 17.77 6.144 26.684.843 9.035 4.82 17.65 5.783 26.504.904 8.072-.24 16.264 1.205 24.335s-3.795 18.312-.843 25.9c3.012 7.47 17.65 9.76 21.564 16.867 3.975 6.867 0 17.468 3.13 24.817 3.796 8.794 10.723 16.625 12.53 26.202 1.807 9.335 10.24 18.49 11.023 28.19.904 9.637-10.842 20.178-10 29.755.784 9.758-1.083 20.18.603 29.515 1.807 9.638 10.842 17.83 14.697 26.504 3.855 8.734 9.276 16.685 16.264 23.974 7.35 7.53 16.504 12.047 26.022 16.504 9.396 4.216 17.287 16.384 27.707 18.372 10.42 1.928 22.71-6.867 33.13-6.626 10.54.3 21.322 10.12 31.924 9.758 10.542-.36 20.782-11.445 31.323-11.445s21.685-1.384 32.226 0c8.733 1.206 17.106 6.025 25.6 8.434 8.432 2.168 18.792-.602 27.105 2.108 8.433 2.71 11.866 19.275 20.18 21.986 8.432 2.65 16.865 6.505 25.418 8.614 9.758 2.41 20.78 1.988 30.6 3.253 9.88 1.325 20.6-3.253 30.6-2.89 9.94.36 20.058 3.19 29.997 2.83 10-.422 19.757-5.06 29.636-6.024 9.94-.963 18.673-9.637 28.49-10.962 9.88-1.325 19.698-1.687 29.516-3.373 9.758-1.687 20.3.723 30.118-1.084 8.01-1.505 18.25 6.808 26.323 5.12 8.01-1.686 12.83-16.082 20.72-18.31 7.952-2.17 14.036-7.35 21.686-10.24 7.59-3.013 21.804 7.83 29.032 4.215 7.228-3.795 11.204-13.673 18.07-17.95 6.988-4.216 18.072-2.77 24.697-7.228 6.866-4.578 9.275-15.06 15.9-19.757 7.41-5.18 18.252-6.325 25.6-11.746 7.23-5.42 7.35-19.275 14.096-25.3 6.867-6.023 22.89-3.975 28.732-10.962 5.42-6.505.18-19.878 3.976-27.106 3.735-7.35 9.457-13.673 12.53-21.323 3.13-7.65 9.757-13.854 13.07-21.444 3.614-8.193 4.518-17.59 8.072-25.902 3.614-8.192 8.192-16.083 11.445-24.456 3.374-8.433 9.94-15.66 13.012-24.094 3.012-8.433 7.228-16.745 9.94-25.3 2.83-8.552-4.458-19.877-2.05-28.55s5.543-16.867 7.47-25.72c1.928-8.675-1.325-18.072.12-26.926 1.385-8.794 14.276-16.143 15.06-24.998.842-8.855-10.06-18.19-9.94-27.106.12-8.855 13.13-17.95 12.53-26.865s-4.217-17.83-5.603-26.624"/><path d="M660.66 574.042c-4.637 7.95-11.926 15.06-15.66 23.492-3.313 7.83-1.325 15.842-3.976 22.89-3.855 9.817-19.275 32.285-29.877 36.14-5.3 1.807-11.144 1.205-16.745 1.807-15.66 1.808-28.913 12.47-44.393 15.42-23.07 4.338-45.418-9.034-68.67-12.95-19.395-3.313-40.357-.24-58.427-8.312-18.07-8.132-28.913-25.9-38.852-42.526l-15.48-26.142c-3.613-6.024-7.227-12.047-9.034-18.673s-1.807-13.493-1.807-20.36V478.87c0-11.145 0-22.53 3.794-33.13 4.94-13.854 15.66-24.877 26.323-35.177 18.07-17.468 37.587-34.515 61.44-43.37 39.755-14.757 85.414-4.517 122.58 15.48 61.017 32.77 107.64 98.305 97.58 164.925-1.277 9.897-4.34 18.85-8.864 26.87zM492.906 422.25c-14.456 3.01-26.142 14.636-39.273 20.72-13.01 6.024-23.733 8.855-29.696 23.793-4.82 12.047-4.518 25.54-4.216 38.55.482 15.06.904 30.42 5.42 44.816 4.398 14.455 13.433 28.008 27.107 34.574 17.468 8.433 38.13 3.735 57.224 6.987 18.192 3.133 35.54 13.554 53.79 11.265 10.512-1.716 19.724-6.355 27.025-13.046 1.93-1.405 3.433-3.374 4.27-5.664.87-3.097-.454-6.108-1.658-9.12-5.324-12.33-9.3-26.64-11.238-41.593-2.015-16.715-1.713-33.16-7.616-47.977-5.903-14.456-17.167-25.9-28.19-36.864-14.577-14.637-32.828-30.42-53.007-26.323z"/><path fill="none" stroke="#000" stroke-width="84.329" stroke-linecap="round" stroke-linejoin="round" d="M804.563 502.362c-10.118-52.07-27.464-98.427-51.206-140.707-4.932-9.49-12.023-19.697-20.238-28.877-9.875-10.46-22.464-18.53-34.812-26.48-47.104-30.12-94.87-60.598-148.36-78.066-16.264-5.42-33.43-9.517-50.598-8.794-17.468.723-34.153 6.264-50.477 11.927-23.37 8.072-46.562 16.444-69.692 25.118-19.52 6.756-36.226 14.486-52.003 23.643-35.458 21.895-60.757 59.12-76.117 98.635s-21.685 81.68-28.01 123.483c-3.975 26.805-7.95 54.453-1.384 80.715 4.324 14.914 9.572 27.78 15.974 39.945l31.733 66.73c-14.095 9.88-18.07 29.516-12.65 45.48s18.553 28.43 33.13 37.526c12.408 7.71 29.515 13.13 40.96 4.336 2.41-1.807 4.337-4.216 6.807-5.903 10-7.228 24.094-2.41 35.54 2.048 73.486 28.733 156.49 38.793 233.11 18.674 76.5-20.12 145.348-72.523 174.562-143.54 10.963-26.625 15.902-54.815 17.348-83.306 1.205-22.77 10.842-38.792 6.445-62.645z"/></svg>