<svg width="48" height="48" viewBox="0 0 48 48" fill="none" xmlns="http://www.w3.org/2000/svg">
<circle cx="24" cy="24" r="24" fill="#94BE43"/>
<mask id="path-2-inside-1_2485_27010" fill="white">
<path fill-rule="evenodd" clip-rule="evenodd" d="M24.5434 43.2722L18.9053 41.2201L24.5434 43.2722Z"/>
</mask>
<path fill-rule="evenodd" clip-rule="evenodd" d="M24.5434 43.2722L18.9053 41.2201L24.5434 43.2722Z" fill="white"/>
<path d="M28.4767 32.4657L22.8385 30.4136L14.972 52.0266L20.6102 54.0787L28.4767 32.4657ZM14.972 52.0266L20.6102 54.0787L28.4767 32.4657L22.8385 30.4136L14.972 52.0266Z" fill="#979797" mask="url(#path-2-inside-1_2485_27010)"/>
<path fill-rule="evenodd" clip-rule="evenodd" d="M22.7743 27.4485L18.4999 17L14.2255 27.4485C14.1178 27.7117 14.3114 28 14.5957 28H16.9999V32H19.9999V28H22.4041C22.6884 28 22.882 27.7117 22.7743 27.4485Z" fill="#94BE43"/>
<path d="M18.4999 17L19.4255 16.6214C19.2717 16.2455 18.906 16 18.4999 16C18.0938 16 17.7281 16.2455 17.5744 16.6214L18.4999 17ZM22.7743 27.4485L21.8488 27.8272L21.8488 27.8272L22.7743 27.4485ZM14.2255 27.4485L13.3 27.0699H13.3L14.2255 27.4485ZM16.9999 28H17.9999C17.9999 27.4477 17.5522 27 16.9999 27V28ZM16.9999 32H15.9999C15.9999 32.5523 16.4476 33 16.9999 33V32ZM19.9999 32V33C20.5522 33 20.9999 32.5523 20.9999 32H19.9999ZM19.9999 28V27C19.4476 27 18.9999 27.4477 18.9999 28H19.9999ZM17.5744 17.3786L21.8488 27.8272L23.6999 27.0699L19.4255 16.6214L17.5744 17.3786ZM15.151 27.8272L19.4255 17.3786L17.5744 16.6214L13.3 27.0699L15.151 27.8272ZM14.5957 27C15.0222 27 15.3125 27.4325 15.151 27.8272L13.3 27.0699C12.9232 27.9909 13.6006 29 14.5957 29V27ZM16.9999 27H14.5957V29H16.9999V27ZM17.9999 32V28H15.9999V32H17.9999ZM19.9999 31H16.9999V33H19.9999V31ZM18.9999 28V32H20.9999V28H18.9999ZM22.4041 27H19.9999V29H22.4041V27ZM21.8488 27.8272C21.6873 27.4324 21.9776 27 22.4041 27V29C23.3992 29 24.0766 27.991 23.6999 27.0699L21.8488 27.8272Z" fill="white"/>
<path fill-rule="evenodd" clip-rule="evenodd" d="M13.7743 27.4485L9.49991 17L5.2255 27.4485C5.11785 27.7117 5.3114 28 5.59572 28H7.99991V32H10.9999V28H13.4041C13.6884 28 13.882 27.7117 13.7743 27.4485Z" fill="#94BE43"/>
<path d="M9.49991 17L10.4255 16.6214C10.2717 16.2455 9.90596 16 9.49991 16C9.09385 16 8.72811 16.2455 8.57436 16.6214L9.49991 17ZM13.7743 27.4485L12.8488 27.8272L12.8488 27.8272L13.7743 27.4485ZM5.2255 27.4485L4.29995 27.0699H4.29995L5.2255 27.4485ZM7.99991 28H8.99991C8.99991 27.4477 8.55219 27 7.99991 27V28ZM7.99991 32H6.99991C6.99991 32.5523 7.44762 33 7.99991 33V32ZM10.9999 32V33C11.5522 33 11.9999 32.5523 11.9999 32H10.9999ZM10.9999 28V27C10.4476 27 9.99991 27.4477 9.99991 28H10.9999ZM8.57436 17.3786L12.8488 27.8272L14.6999 27.0699L10.4255 16.6214L8.57436 17.3786ZM6.15105 27.8272L10.4255 17.3786L8.57436 16.6214L4.29995 27.0699L6.15105 27.8272ZM5.59572 27C6.0222 27 6.31253 27.4325 6.15105 27.8272L4.29995 27.0699C3.92317 27.9909 4.60059 29 5.59572 29V27ZM7.99991 27H5.59572V29H7.99991V27ZM8.99991 32V28H6.99991V32H8.99991ZM10.9999 31H7.99991V33H10.9999V31ZM9.99991 28V32H11.9999V28H9.99991ZM13.4041 27H10.9999V29H13.4041V27ZM12.8488 27.8272C12.6873 27.4324 12.9776 27 13.4041 27V29C14.3992 29 15.0766 27.991 14.6999 27.0699L12.8488 27.8272Z" fill="white"/>
<path fill-rule="evenodd" clip-rule="evenodd" d="M39.0921 31.8939L40.367 16.7158L28.4967 26.2603L32.0285 28.1381L30.1506 31.6699L33.6824 33.5478L35.5603 30.016L39.0921 31.8939Z" fill="#94BE43"/>
<path d="M40.367 16.7158L41.3635 16.7995C41.397 16.4009 41.1897 16.0207 40.8365 15.8329C40.4833 15.6451 40.0521 15.6858 39.7404 15.9365L40.367 16.7158ZM39.0921 31.8939L38.6226 32.7769C38.9194 32.9347 39.2757 32.9328 39.5708 32.7719C39.8659 32.611 40.0605 32.3126 40.0886 31.9776L39.0921 31.8939ZM28.4967 26.2603L27.8701 25.4809C27.6081 25.6916 27.4695 26.0197 27.5012 26.3544C27.5328 26.689 27.7305 26.9854 28.0273 27.1432L28.4967 26.2603ZM32.0285 28.1381L32.9115 28.6076C33.1708 28.12 32.9856 27.5145 32.498 27.2552L32.0285 28.1381ZM30.1506 31.6699L29.2677 31.2005C29.0084 31.6881 29.1935 32.2936 29.6812 32.5529L30.1506 31.6699ZM33.6824 33.5478L33.213 34.4308C33.7006 34.69 34.3061 34.5049 34.5654 34.0173L33.6824 33.5478ZM35.5603 30.016L36.0298 29.1331C35.5421 28.8738 34.9366 29.0589 34.6774 29.5466L35.5603 30.016ZM39.3705 16.6321L38.0956 31.8102L40.0886 31.9776L41.3635 16.7995L39.3705 16.6321ZM29.1234 27.0396L40.9936 17.4951L39.7404 15.9365L27.8701 25.4809L29.1234 27.0396ZM32.498 27.2552L28.9662 25.3773L28.0273 27.1432L31.5591 29.0211L32.498 27.2552ZM31.0336 32.1394L32.9115 28.6076L31.1456 27.6687L29.2677 31.2005L31.0336 32.1394ZM34.1519 32.6649L30.6201 30.787L29.6812 32.5529L33.213 34.4308L34.1519 32.6649ZM34.6774 29.5466L32.7995 33.0783L34.5654 34.0173L36.4433 30.4855L34.6774 29.5466ZM39.5616 31.011L36.0298 29.1331L35.0908 30.899L38.6226 32.7769L39.5616 31.011Z" fill="white"/>
<path d="M34.1981 15.3856C34.1308 15.9338 34.5206 16.4327 35.0688 16.5C35.5748 16.5622 36.0388 16.2348 36.1602 15.7529L36.1832 15.6294L36.5279 12.822C36.5952 12.2739 36.2054 11.7749 35.6572 11.7076C35.1512 11.6455 34.6872 11.9728 34.5658 12.4547L34.5428 12.5783L34.1981 15.3856Z" fill="white"/>
<path d="M29.009 19.4402C29.5571 19.5075 29.947 20.0065 29.8796 20.5547C29.8175 21.0607 29.3876 21.4317 28.8907 21.4329L28.7652 21.4253L25.9579 21.0806C25.4097 21.0133 25.0199 20.5144 25.0872 19.9662C25.1493 19.4602 25.5792 19.0891 26.0762 19.088L26.2016 19.0955L29.009 19.4402Z" fill="white"/>
<path d="M30.7848 14.7416C31.1248 15.1768 31.0476 15.8053 30.6124 16.1453C30.2083 16.461 29.6376 16.417 29.2859 16.0607L29.2088 15.9729L27.5562 13.8578C27.2162 13.4226 27.2934 12.7942 27.7286 12.4541C28.1327 12.1384 28.7035 12.1824 29.0552 12.5387L29.1323 12.6265L30.7848 14.7416Z" fill="white"/>
</svg>
