<svg width="48" height="48" viewBox="0 0 48 48" fill="none" xmlns="http://www.w3.org/2000/svg">
<circle cx="24" cy="24" r="24" fill="#94BE43"/>
<path fill-rule="evenodd" clip-rule="evenodd" d="M15.4819 26.1339C15.6158 26.1339 15.8167 26.2009 15.9506 26.3348L22.0444 31.9598C22.3123 32.2277 22.3792 32.6294 22.1114 32.8973L20.5712 34.5714C19.6337 35.5759 18.3614 36.1116 17.0221 36.1116C15.8837 36.1116 14.6783 35.7098 13.7408 34.8393C12.8033 33.9687 12.2676 32.7634 12.2006 31.4911C12.1337 30.2187 12.6024 28.9464 13.473 28.0089L15.0131 26.3348C15.1471 26.2009 15.281 26.1339 15.4819 26.1339ZM14.6781 33.9018C16.0843 35.241 18.2941 35.1071 19.6334 33.7009L20.7048 32.4285L15.5486 27.6741L14.4772 28.8794C13.8075 29.616 13.4727 30.4866 13.5397 31.4241C13.6066 32.4285 14.0084 33.2321 14.6781 33.9018Z" fill="white"/>
<path d="M15.9506 26.3348L15.5971 26.6884L15.6042 26.6954L15.6115 26.7022L15.9506 26.3348ZM22.0444 31.9598L22.398 31.6063L22.3909 31.5992L22.3835 31.5924L22.0444 31.9598ZM22.1114 32.8973L21.7578 32.5438L21.7504 32.5511L21.7434 32.5588L22.1114 32.8973ZM20.5712 34.5714L20.9367 34.9126L20.9391 34.9099L20.5712 34.5714ZM13.7408 34.8393L14.0811 34.4729L13.7408 34.8393ZM12.2006 31.4911L11.7013 31.5173L12.2006 31.4911ZM13.473 28.0089L13.8394 28.3491L13.8409 28.3474L13.473 28.0089ZM15.0131 26.3348L14.6596 25.9813L14.6522 25.9886L14.6452 25.9963L15.0131 26.3348ZM19.6334 33.7009L19.9955 34.0457L20.006 34.0346L20.0159 34.0229L19.6334 33.7009ZM14.6781 33.9018L14.3244 34.2554L14.3332 34.2638L14.6781 33.9018ZM20.7048 32.4285L21.0873 32.7506L21.3952 32.385L21.0438 32.061L20.7048 32.4285ZM15.5486 27.6741L15.8875 27.3065L15.5132 26.9613L15.1749 27.3419L15.5486 27.6741ZM14.4772 28.8794L14.8472 29.2158L14.8509 29.2116L14.4772 28.8794ZM13.5397 31.4241L14.0386 31.3908L14.0384 31.3884L13.5397 31.4241ZM16.3042 25.9813C16.0704 25.7474 15.7395 25.6339 15.4819 25.6339V26.6339C15.4753 26.6339 15.4781 26.6333 15.4898 26.6357C15.5007 26.638 15.5149 26.6421 15.5306 26.6484C15.5644 26.6619 15.587 26.6783 15.5971 26.6884L16.3042 25.9813ZM22.3835 31.5924L16.2898 25.9674L15.6115 26.7022L21.7053 32.3272L22.3835 31.5924ZM22.4649 33.2509C22.9911 32.7247 22.7914 31.9997 22.398 31.6063L21.6908 32.3134C21.754 32.3766 21.7774 32.4402 21.7813 32.4783C21.783 32.4959 21.7808 32.507 21.7785 32.5136C21.7765 32.5195 21.772 32.5296 21.7578 32.5438L22.4649 33.2509ZM20.9391 34.9099L22.4793 33.2358L21.7434 32.5588L20.2032 34.2329L20.9391 34.9099ZM17.0221 36.6116C18.4975 36.6116 19.903 36.0201 20.9367 34.9126L20.2057 34.2303C19.3644 35.1316 18.2252 35.6116 17.0221 35.6116V36.6116ZM13.4006 35.2057C14.4393 36.1702 15.77 36.6116 17.0221 36.6116V35.6116C15.9974 35.6116 14.9173 35.2494 14.0811 34.4729L13.4006 35.2057ZM11.7013 31.5173C11.7748 32.9123 12.3628 34.242 13.4006 35.2057L14.0811 34.4729C13.2438 33.6955 12.7605 32.6145 12.7 31.4648L11.7013 31.5173ZM13.1066 27.6687C12.1455 28.7037 11.6271 30.1076 11.7013 31.5173L12.7 31.4648C12.6402 30.3298 13.0593 29.1892 13.8394 28.3491L13.1066 27.6687ZM14.6452 25.9963L13.105 27.6704L13.8409 28.3474L15.3811 26.6733L14.6452 25.9963ZM15.4819 25.6339C15.3231 25.6339 15.1684 25.661 15.0193 25.7272C14.8724 25.7925 14.7561 25.8848 14.6596 25.9813L15.3667 26.6884C15.4041 26.6509 15.4217 26.6427 15.4255 26.641C15.4271 26.6403 15.4398 26.6339 15.4819 26.6339V25.6339ZM19.2713 33.356C18.1078 34.5777 16.2141 34.6742 15.0229 33.5397L14.3332 34.2638C15.9545 35.8079 18.4804 35.6365 19.9955 34.0457L19.2713 33.356ZM20.3224 32.1065L19.251 33.3788L20.0159 34.0229L21.0873 32.7506L20.3224 32.1065ZM15.2096 28.0417L20.3659 32.7961L21.0438 32.061L15.8875 27.3065L15.2096 28.0417ZM14.8509 29.2116L15.9223 28.0063L15.1749 27.3419L14.1035 28.5472L14.8509 29.2116ZM14.0384 31.3884C13.9823 30.6038 14.2577 29.8641 14.8471 29.2158L14.1072 28.5431C13.3573 29.368 12.9631 30.3694 13.0409 31.4597L14.0384 31.3884ZM15.0316 33.5482C14.441 32.9576 14.0969 32.2654 14.0386 31.3908L13.0408 31.4573C13.1164 32.5916 13.5758 33.5066 14.3245 34.2553L15.0316 33.5482Z" fill="white"/>
<path fill-rule="evenodd" clip-rule="evenodd" d="M28.4735 11.4018C30.5494 10.8661 32.4914 11.4018 34.0316 12.808C35.5717 14.2143 36.2414 16.0893 35.9066 18.2321C35.3709 21.9152 32.1566 25.2634 29.411 26.6027C27.4021 27.5402 26.1298 28.6116 25.3932 29.3482C25.0584 29.683 24.5896 29.8839 24.1209 29.8839C23.7191 29.8839 23.2503 29.75 22.9155 29.4152L18.4289 25.3304C17.7592 24.6607 17.6923 23.5893 18.295 22.8527C18.9646 22.1161 19.9021 20.7768 20.7057 18.6339C21.7771 15.7545 24.8575 12.2723 28.4735 11.4018ZM28.8753 25.3973C31.353 24.192 34.1655 21.1116 34.6342 18.0312C34.8351 16.3571 34.3664 14.9509 33.0941 13.8795C32.1566 13.0089 31.0851 12.6071 29.9467 12.6071C29.545 12.6071 29.1432 12.6741 28.7414 12.7411C25.728 13.4107 22.9155 16.558 21.911 19.1027C21.0405 21.3795 20.036 22.8527 19.2994 23.7232C19.1655 23.8571 19.1655 24.192 19.3664 24.3259L23.853 28.4107C23.9869 28.6116 24.2548 28.6116 24.4557 28.4107C25.2592 27.6071 26.6655 26.4687 28.8753 25.3973Z" fill="white"/>
<path d="M28.4735 11.4018L28.5906 11.888L28.5985 11.8859L28.4735 11.4018ZM35.9066 18.2321L35.4125 18.1549L35.4118 18.1602L35.9066 18.2321ZM29.411 26.6027L29.6225 27.0558L29.6302 27.0521L29.411 26.6027ZM25.3932 29.3482L25.0396 28.9947H25.0396L25.3932 29.3482ZM22.9155 29.4152L23.2691 29.0616L23.2608 29.0533L23.2521 29.0455L22.9155 29.4152ZM18.4289 25.3304L18.0753 25.6839L18.0836 25.6922L18.0923 25.7001L18.4289 25.3304ZM18.295 22.8527L17.925 22.5163L17.9162 22.526L17.908 22.5361L18.295 22.8527ZM20.7057 18.6339L21.1738 18.8095L21.1743 18.8083L20.7057 18.6339ZM34.6342 18.0312L35.1286 18.1065L35.1297 18.0987L35.1307 18.0908L34.6342 18.0312ZM28.8753 25.3973L29.0935 25.8472L29.0941 25.8469L28.8753 25.3973ZM33.0941 13.8795L32.7538 14.2459L32.7627 14.2541L32.772 14.2619L33.0941 13.8795ZM28.7414 12.7411L28.6592 12.2479L28.646 12.2501L28.6329 12.253L28.7414 12.7411ZM21.911 19.1027L21.4459 18.9191L21.444 18.9241L21.911 19.1027ZM19.2994 23.7232L19.653 24.0768L19.6677 24.0621L19.6811 24.0462L19.2994 23.7232ZM19.3664 24.3259L19.703 23.9562L19.6751 23.9308L19.6437 23.9099L19.3664 24.3259ZM23.853 28.4107L24.269 28.1334L24.235 28.0823L24.1896 28.041L23.853 28.4107ZM24.4557 28.4107L24.1021 28.0572H24.1021L24.4557 28.4107ZM34.3687 12.4388C32.7092 10.9236 30.5951 10.3379 28.3486 10.9176L28.5985 11.8859C30.5038 11.3942 32.2735 11.8799 33.6944 13.1773L34.3687 12.4388ZM36.4006 18.3093C36.761 16.0026 36.0341 13.9594 34.3687 12.4388L33.6944 13.1773C35.1094 14.4692 35.7218 16.1759 35.4126 18.1549L36.4006 18.3093ZM29.6302 27.0521C31.0736 26.348 32.6184 25.1289 33.8725 23.6153C35.1264 22.102 36.1167 20.2614 36.4014 18.3041L35.4118 18.1602C35.1608 19.8859 34.2761 21.5609 33.1025 22.9773C31.9291 24.3934 30.494 25.5181 29.1918 26.1533L29.6302 27.0521ZM25.7467 29.7018C26.4491 28.9994 27.6746 27.9648 29.6225 27.0558L29.1996 26.1496C27.1296 27.1156 25.8105 28.2238 25.0396 28.9947L25.7467 29.7018ZM24.1209 30.3839C24.7276 30.3839 25.322 30.1265 25.7467 29.7018L25.0396 28.9947C24.7947 29.2396 24.4516 29.3839 24.1209 29.3839V30.3839ZM22.5619 29.7687C23.0132 30.22 23.6224 30.3839 24.1209 30.3839V29.3839C23.8157 29.3839 23.4874 29.28 23.2691 29.0616L22.5619 29.7687ZM18.0923 25.7001L22.5789 29.7849L23.2521 29.0455L18.7655 24.9606L18.0923 25.7001ZM17.908 22.5361C17.1388 23.4761 17.2283 24.8369 18.0753 25.6839L18.7824 24.9768C18.2902 24.4845 18.2457 23.7024 18.6819 23.1693L17.908 22.5361ZM20.2375 18.4584C19.4547 20.5458 18.5493 21.8296 17.925 22.5163L18.6649 23.189C19.3799 22.4025 20.3495 21.0077 21.1738 18.8095L20.2375 18.4584ZM28.3565 10.9157C26.4364 11.3779 24.6851 12.525 23.284 13.9088C21.8829 15.2926 20.8013 16.9432 20.2371 18.4596L21.1743 18.8083C21.6815 17.4452 22.6758 15.915 23.9867 14.6202C25.2977 13.3254 26.8946 12.2962 28.5906 11.8879L28.3565 10.9157ZM34.1399 17.956C33.9231 19.3806 33.156 20.8396 32.1216 22.1002C31.0882 23.3597 29.8205 24.3815 28.6566 24.9477L29.0941 25.8469C30.4078 25.2078 31.7852 24.0867 32.8947 22.7346C34.0031 21.3836 34.8766 19.7622 35.1286 18.1065L34.1399 17.956ZM32.772 14.2619C33.8991 15.2111 34.3213 16.4426 34.1378 17.9717L35.1307 18.0908C35.349 16.2717 34.8337 14.6907 33.4161 13.497L32.772 14.2619ZM29.9467 13.1071C30.9564 13.1071 31.9069 13.4594 32.7538 14.2459L33.4343 13.5131C32.4062 12.5584 31.2139 12.1071 29.9467 12.1071V13.1071ZM28.8236 13.2343C29.2327 13.1661 29.5934 13.1071 29.9467 13.1071V12.1071C29.4965 12.1071 29.0536 12.1821 28.6592 12.2479L28.8236 13.2343ZM22.3761 19.2863C22.8494 18.0873 23.7612 16.7214 24.9239 15.5748C26.0889 14.426 27.4653 13.5368 28.8499 13.2292L28.6329 12.253C27.0041 12.6149 25.4676 13.6342 24.2218 14.8627C22.9738 16.0934 21.9771 17.5734 21.446 18.9191L22.3761 19.2863ZM19.6811 24.0462C20.4533 23.1336 21.487 21.6118 22.3781 19.2812L21.444 18.9241C20.594 21.1471 19.6188 22.5717 18.9177 23.4002L19.6811 24.0462ZM19.6437 23.9099C19.6754 23.9309 19.6922 23.9558 19.6996 23.9704C19.7031 23.9775 19.7047 23.9826 19.7053 23.9852C19.706 23.9877 19.7061 23.9889 19.7061 23.9889C19.7061 23.9889 19.7061 23.9891 19.706 23.9899C19.706 23.9906 19.7056 23.9935 19.7041 23.9987C19.702 24.0056 19.6912 24.0385 19.653 24.0768L18.9459 23.3697C18.7448 23.5707 18.6936 23.8497 18.7086 24.0602C18.7244 24.2816 18.8234 24.5648 19.089 24.7419L19.6437 23.9099ZM24.1896 28.041L19.703 23.9562L19.0298 24.6956L23.5164 28.7804L24.1896 28.041ZM24.1021 28.0572C24.0782 28.0811 24.0829 28.0614 24.1292 28.0614C24.1527 28.0614 24.1818 28.0671 24.2107 28.0825C24.24 28.0981 24.259 28.1183 24.269 28.1334L23.437 28.6881C23.5973 28.9285 23.8543 29.0614 24.1292 29.0614C24.3932 29.0614 24.6322 28.9412 24.8092 28.7643L24.1021 28.0572ZM28.6572 24.9474C26.3967 26.0434 24.9448 27.2145 24.1021 28.0572L24.8092 28.7643C25.5737 27.9998 26.9343 26.8941 29.0935 25.8472L28.6572 24.9474Z" fill="white"/>
</svg>
