<svg width="32" height="32" viewBox="0 0 32 32" fill="none" xmlns="http://www.w3.org/2000/svg">
<circle cx="16" cy="16" r="16" fill="#94BE43"/>
<path fill-rule="evenodd" clip-rule="evenodd" d="M12.3417 8.66774C12.2513 8.66904 12.1621 8.70611 12.0993 8.7692C12.0365 8.83165 12.0008 8.91945 12.0021 9.00661C11.9974 13.8296 12.0021 18.845 12.0021 22.9935C12.0001 23.0819 12.0365 23.1704 12.1007 23.2335C12.1648 23.2966 12.2553 23.3337 12.3472 23.3337C12.439 23.3337 12.5295 23.2966 12.5936 23.2335C12.6578 23.1704 12.6942 23.0819 12.6922 22.9935V15.2358H20.9883C21.0578 15.2358 21.1267 15.215 21.1834 15.1772C21.2401 15.1395 21.2854 15.0842 21.3103 15.0218C21.3353 14.9593 21.3401 14.8897 21.3239 14.824C21.3076 14.759 21.2705 14.6985 21.2192 14.6536L18.6741 12.4337L21.2211 10.1767C21.2717 10.1318 21.3082 10.0713 21.3244 10.0063C21.3399 9.94123 21.3352 9.87163 21.3102 9.80919C21.2852 9.74674 21.2407 9.69211 21.1833 9.65438C21.1266 9.61666 21.0577 9.59584 20.9881 9.59584H12.6921V9.00525C12.6934 8.91614 12.6563 8.82703 12.5908 8.76459C12.526 8.7015 12.4335 8.66573 12.3416 8.66703L12.3417 8.66774Z" fill="white"/>
</svg>
