<svg width="32" height="32" viewBox="0 0 32 32" fill="none" xmlns="http://www.w3.org/2000/svg">
<circle cx="16" cy="16" r="16" fill="#94BE43"/>
<path fill-rule="evenodd" clip-rule="evenodd" d="M18.0183 23.6079C18.1428 23.6813 18.2765 23.7084 18.4042 23.698C18.532 23.7084 18.6657 23.6813 18.7902 23.6079L23.5814 20.7844C23.7823 20.666 23.9057 20.4501 23.9057 20.2168V9.32583C23.9057 8.81727 23.3539 8.50047 22.9147 8.75686L18.4042 11.3899L13.8937 8.75686C13.7187 8.65471 13.5259 8.64354 13.3572 8.69924C13.2763 8.71089 13.1953 8.73828 13.1179 8.78351L8.32668 11.5804C8.12438 11.6985 8 11.9151 8 12.1494V23.067C8 23.5768 8.55413 23.8934 8.99332 23.6346L13.5284 20.962L18.0183 23.6079ZM12.7912 10.5V19.8671L9.31771 21.9141V12.5277L12.7912 10.5ZM14.2207 19.8404L17.6942 21.8874V12.501L14.2207 10.4733V19.8404ZM22.5881 19.8404L19.1146 21.8874V12.501L22.5881 10.4733V19.8404Z" fill="white"/>
</svg>
