<svg width="32" height="32" viewBox="0 0 32 32" fill="none" xmlns="http://www.w3.org/2000/svg">
<circle cx="16" cy="16" r="16" fill="#94BE43"/>
<mask id="path-2-inside-1_2088_24072" fill="white">
<path fill-rule="evenodd" clip-rule="evenodd" d="M16.3623 28.8476L12.6035 27.4795L16.3623 28.8476Z"/>
</mask>
<path fill-rule="evenodd" clip-rule="evenodd" d="M16.3623 28.8476L12.6035 27.4795L16.3623 28.8476Z" fill="white"/>
<path d="M18.9844 21.6433L15.2257 20.2752L9.98136 34.6838L13.7401 36.0519L18.9844 21.6433ZM9.98136 34.6838L13.7401 36.0519L18.9844 21.6433L15.2257 20.2752L9.98136 34.6838Z" fill="#979797" mask="url(#path-2-inside-1_2088_24072)"/>
<path fill-rule="evenodd" clip-rule="evenodd" d="M15.1822 18.2997L12.3326 11.334L9.48302 18.2997C9.41125 18.4751 9.54028 18.6673 9.72983 18.6673H11.3326V21.334H13.3326V18.6673H14.9354C15.125 18.6673 15.254 18.4751 15.1822 18.2997Z" fill="#94BE43"/>
<path d="M12.3326 11.334L12.9497 11.0816C12.8472 10.831 12.6033 10.6673 12.3326 10.6673C12.0619 10.6673 11.8181 10.831 11.7156 11.0816L12.3326 11.334ZM15.1822 18.2997L14.5652 18.5521L14.5652 18.5521L15.1822 18.2997ZM9.48302 18.2997L10.1 18.5521H10.1L9.48302 18.2997ZM11.3326 18.6673H11.9993C11.9993 18.2991 11.7008 18.0007 11.3326 18.0007V18.6673ZM11.3326 21.334H10.666C10.666 21.7022 10.9644 22.0007 11.3326 22.0007V21.334ZM13.3326 21.334V22.0007C13.7008 22.0007 13.9993 21.7022 13.9993 21.334H13.3326ZM13.3326 18.6673V18.0007C12.9644 18.0007 12.666 18.2991 12.666 18.6673H13.3326ZM11.7156 11.5864L14.5652 18.5521L15.7993 18.0473L12.9497 11.0816L11.7156 11.5864ZM10.1 18.5521L12.9497 11.5864L11.7156 11.0816L8.86598 18.0473L10.1 18.5521ZM9.72983 18.0007C10.0142 18.0007 10.2077 18.289 10.1 18.5521L8.86598 18.0473C8.61479 18.6613 9.06641 19.334 9.72983 19.334V18.0007ZM11.3326 18.0007H9.72983V19.334H11.3326V18.0007ZM11.9993 21.334V18.6673H10.666V21.334H11.9993ZM13.3326 20.6673H11.3326V22.0007H13.3326V20.6673ZM12.666 18.6673V21.334H13.9993V18.6673H12.666ZM14.9354 18.0007H13.3326V19.334H14.9354V18.0007ZM14.5652 18.5521C14.4575 18.2889 14.6511 18.0007 14.9354 18.0007V19.334C15.5988 19.334 16.0504 18.6613 15.7993 18.0473L14.5652 18.5521Z" fill="white"/>
<path fill-rule="evenodd" clip-rule="evenodd" d="M9.18222 18.2997L6.33262 11.334L3.48302 18.2997C3.41125 18.4751 3.54028 18.6673 3.72983 18.6673H5.33262V21.334H7.33262V18.6673H8.93541C9.12496 18.6673 9.25399 18.4751 9.18222 18.2997Z" fill="#94BE43"/>
<path d="M6.33262 11.334L6.94965 11.0816C6.84715 10.831 6.60332 10.6673 6.33262 10.6673C6.06191 10.6673 5.81809 10.831 5.71559 11.0816L6.33262 11.334ZM9.18222 18.2997L8.56519 18.5521V18.5521L9.18222 18.2997ZM3.48302 18.2997L4.10005 18.5521H4.10005L3.48302 18.2997ZM5.33262 18.6673H5.99929C5.99929 18.2991 5.70081 18.0007 5.33262 18.0007V18.6673ZM5.33262 21.334H4.66595C4.66595 21.7022 4.96443 22.0007 5.33262 22.0007V21.334ZM7.33262 21.334V22.0007C7.70081 22.0007 7.99929 21.7022 7.99929 21.334H7.33262ZM7.33262 18.6673V18.0007C6.96443 18.0007 6.66595 18.2991 6.66595 18.6673H7.33262ZM5.71559 11.5864L8.56519 18.5521L9.79925 18.0473L6.94965 11.0816L5.71559 11.5864ZM4.10005 18.5521L6.94965 11.5864L5.71559 11.0816L2.86598 18.0473L4.10005 18.5521ZM3.72983 18.0007C4.01415 18.0007 4.2077 18.289 4.10005 18.5521L2.86598 18.0473C2.61479 18.6613 3.06641 19.334 3.72983 19.334V18.0007ZM5.33262 18.0007H3.72983V19.334H5.33262V18.0007ZM5.99929 21.334V18.6673H4.66595V21.334H5.99929ZM7.33262 20.6673H5.33262V22.0007H7.33262V20.6673ZM6.66595 18.6673V21.334H7.99929V18.6673H6.66595ZM8.93541 18.0007H7.33262V19.334H8.93541V18.0007ZM8.56519 18.5521C8.45754 18.2889 8.65109 18.0007 8.93541 18.0007V19.334C9.59883 19.334 10.0504 18.6613 9.79925 18.0473L8.56519 18.5521Z" fill="white"/>
<path fill-rule="evenodd" clip-rule="evenodd" d="M26.0608 21.2622L26.9107 11.1435L18.9972 17.5065L21.3515 18.7583L20.0997 21.1127L22.4542 22.3646L23.7061 20.0102L26.0608 21.2622Z" fill="#94BE43"/>
<path d="M26.9107 11.1435L27.575 11.1993C27.5973 10.9336 27.4591 10.6801 27.2237 10.5549C26.9882 10.4297 26.7008 10.4569 26.4929 10.624L26.9107 11.1435ZM26.0608 21.2622L25.7478 21.8509C25.9456 21.9561 26.1831 21.9548 26.3799 21.8476C26.5766 21.7403 26.7063 21.5414 26.7251 21.318L26.0608 21.2622ZM18.9972 17.5065L18.5794 16.9869C18.4048 17.1273 18.3124 17.3461 18.3335 17.5692C18.3546 17.7923 18.4863 17.9899 18.6842 18.0951L18.9972 17.5065ZM21.3515 18.7583L21.9402 19.0713C22.0232 18.9152 22.0408 18.7325 21.9891 18.5634C21.9374 18.3943 21.8206 18.2527 21.6645 18.1697L21.3515 18.7583ZM20.0997 21.1127L19.511 20.7997C19.428 20.9558 19.4104 21.1385 19.4621 21.3076C19.5138 21.4767 19.6306 21.6183 19.7867 21.7013L20.0997 21.1127ZM22.4542 22.3646L22.1412 22.9533C22.4663 23.1261 22.87 23.0027 23.0428 22.6776L22.4542 22.3646ZM23.7061 20.0102L24.019 19.4216C23.8629 19.3386 23.6802 19.321 23.5111 19.3727C23.3421 19.4244 23.2004 19.5411 23.1174 19.6972L23.7061 20.0102ZM26.2464 11.0877L25.3964 21.2064L26.7251 21.318L27.575 11.1993L26.2464 11.0877ZM19.4149 18.026L27.3284 11.6631L26.4929 10.624L18.5794 16.9869L19.4149 18.026ZM21.6645 18.1697L19.3102 16.9178L18.6842 18.0951L21.0385 19.3469L21.6645 18.1697ZM20.6883 21.4257L21.9402 19.0713L20.7629 18.4453L19.511 20.7997L20.6883 21.4257ZM22.7672 21.776L20.4126 20.5241L19.7867 21.7013L22.1412 22.9533L22.7672 21.776ZM23.1174 19.6972L21.8656 22.0516L23.0428 22.6776L24.2947 20.3232L23.1174 19.6972ZM26.3737 20.6736L24.019 19.4216L23.3931 20.5989L25.7478 21.8509L26.3737 20.6736Z" fill="white"/>
<path d="M22.7981 10.2572C22.7532 10.6226 23.0131 10.9553 23.3785 11.0001C23.7159 11.0415 24.0252 10.8233 24.1061 10.502L24.1215 10.4197L24.3513 8.54812C24.3962 8.18267 24.1363 7.85004 23.7708 7.80517C23.4335 7.76375 23.1241 7.982 23.0432 8.30325L23.0279 8.38562L22.7981 10.2572Z" fill="white"/>
<path d="M19.34 12.9605C19.7054 13.0054 19.9653 13.338 19.9204 13.7035C19.879 14.0408 19.5924 14.2882 19.2611 14.2889L19.1775 14.2839L17.3059 14.0541C16.9405 14.0092 16.6806 13.6766 16.7255 13.3112C16.7669 12.9738 17.0535 12.7264 17.3848 12.7257L17.4684 12.7307L19.34 12.9605Z" fill="white"/>
<path d="M20.5229 9.82801C20.7495 10.1181 20.6981 10.5371 20.408 10.7638C20.1386 10.9743 19.7581 10.945 19.5236 10.7074L19.4722 10.6489L18.3705 9.2388C18.1438 8.94866 18.1953 8.5297 18.4854 8.30302C18.7548 8.09253 19.1353 8.12185 19.3698 8.35941L19.4212 8.41792L20.5229 9.82801Z" fill="white"/>
</svg>
