<svg width="36" height="36" viewBox="0 0 36 36" fill="none" xmlns="http://www.w3.org/2000/svg">
<circle cx="18" cy="18" r="18" fill="#F2F2F2"/>
<path opacity="0.8" fill-rule="evenodd" clip-rule="evenodd" d="M9 14.6667C9 15.5871 9.73262 16.3333 10.6364 16.3333V24.6667C10.6364 26.5076 12.1016 28 13.9091 28H22.0909C23.8984 28 25.3636 26.5076 25.3636 24.6667V16.3333C26.2674 16.3333 27 15.5871 27 14.6667V13C27 12.0795 26.2674 11.3333 25.3636 11.3333H22.0909V9.66667C22.0909 8.74619 21.3583 8 20.4545 8H15.5455C14.6417 8 13.9091 8.74619 13.9091 9.66667V11.3333H10.6364C9.73262 11.3333 9 12.0795 9 13V14.6667ZM23.7266 24.6666C23.7266 25.5871 22.994 26.3333 22.0902 26.3333H13.9084C13.0047 26.3333 12.272 25.5871 12.272 24.6666V16.3333H23.7266V24.6666ZM20.4544 9.66615H15.5453V11.3328H20.4544V9.66615ZM10.6373 12.9997H25.3645V14.6664H10.6373V12.9997ZM15.5457 23.8332C15.5457 24.2934 15.1794 24.6665 14.7275 24.6665C14.2756 24.6665 13.9093 24.2934 13.9093 23.8332V18.8332C13.9093 18.373 14.2756 17.9999 14.7275 17.9999C15.1794 17.9999 15.5457 18.373 15.5457 18.8332V23.8332ZM17.9995 24.6665C18.4514 24.6665 18.8177 24.2934 18.8177 23.8332V18.8332C18.8177 18.373 18.4514 17.9999 17.9995 17.9999C17.5477 17.9999 17.1814 18.373 17.1814 18.8332V23.8332C17.1814 24.2934 17.5477 24.6665 17.9995 24.6665ZM22.091 23.8332C22.091 24.2934 21.7247 24.6665 21.2728 24.6665C20.821 24.6665 20.4547 24.2934 20.4547 23.8332V18.8332C20.4547 18.373 20.821 17.9999 21.2728 17.9999C21.7247 17.9999 22.091 18.373 22.091 18.8332V23.8332Z" fill="#555555"/>
</svg>
