<svg width="24" height="25" viewBox="0 0 24 25" fill="none" xmlns="http://www.w3.org/2000/svg">
<g clip-path="url(#clip0_1146_21224)">
<rect width="24" height="24" transform="translate(0 0.18457)" fill="none"/>
<path d="M23.5 12.254C23.5 5.90268 18.3513 0.753962 12 0.753962C5.64872 0.753962 0.5 5.90268 0.5 12.254C0.5 17.9939 4.70538 22.7515 10.2031 23.6143V15.5782H7.2832V12.254H10.2031V9.72037C10.2031 6.83818 11.92 5.24615 14.5468 5.24615C15.805 5.24615 17.1211 5.47076 17.1211 5.47076V8.30084H15.671C14.2424 8.30084 13.7969 9.1873 13.7969 10.0967V12.254H16.9863L16.4765 15.5782H13.7969V23.6143C19.2946 22.7515 23.5 17.9939 23.5 12.254Z" fill="white"/>
</g>
<defs>
<clipPath id="clip0_1146_21224">
<rect width="24" height="24" fill="white" transform="translate(0 0.18457)"/>
</clipPath>
</defs>
</svg>
