<svg width="14" height="22" viewBox="0 0 14 22" fill="none" xmlns="http://www.w3.org/2000/svg">
  <path
    fill-rule="evenodd"
    clip-rule="evenodd"
    d="M0.512613 0.0011178C0.376888 0.00306896 0.24318 0.0586813 0.149004 0.153317C0.0548079 0.24698 0.00112609 0.378691 0.00315118 0.509433C-0.00393897 7.74389 0.00315118 15.2671 0.00315118 21.4897C0.000112505 21.6224 0.054808 21.7551 0.15103 21.8498C0.247251 21.9444 0.382977 22 0.520732 22C0.658488 22 0.79421 21.9444 0.890435 21.8498C0.986659 21.7551 1.04135 21.6224 1.03831 21.4897V9.85316H13.4824C13.5867 9.85316 13.69 9.82194 13.7751 9.76535C13.8602 9.70877 13.928 9.62584 13.9655 9.53218C14.003 9.43851 14.0101 9.33412 13.9858 9.23558C13.9615 9.13801 13.9058 9.04728 13.8288 8.97997L10.0112 5.65009L13.8316 2.26452C13.9076 2.1972 13.9623 2.10647 13.9866 2.00891C14.0099 1.91135 14.0028 1.80696 13.9653 1.71329C13.9279 1.61963 13.861 1.53768 13.7749 1.48109C13.6898 1.4245 13.5865 1.39328 13.4822 1.39328H1.03813V0.507385C1.04015 0.373721 0.984445 0.240061 0.886196 0.146399C0.788961 0.0517603 0.650196 -0.00189927 0.512449 5.13976e-05L0.512613 0.0011178Z"
    fill="currentColor"
  />
</svg>
