<svg width="73" height="72" viewBox="0 0 73 72" fill="none" xmlns="http://www.w3.org/2000/svg">
<circle cx="36.5" cy="36" r="36" fill="#94BE43"/>
<path d="M38.7645 50.16C38.7645 50.0821 38.7645 50.0119 38.7645 49.934C38.7796 49.6144 38.7116 49.3103 38.5681 49.0297C38.4775 48.7413 38.3188 48.4918 38.0998 48.2736C37.8958 48.0475 37.6541 47.8838 37.3671 47.7902C37.0951 47.6421 36.8081 47.5798 36.4908 47.5876C36.2869 47.6187 36.0905 47.6421 35.8865 47.6733C35.5013 47.7824 35.1689 47.9851 34.8894 48.2736C34.7686 48.4295 34.6553 48.5854 34.5344 48.7491C34.3305 49.1155 34.2247 49.5052 34.2247 49.9262C34.2247 50.0041 34.2247 50.0743 34.2247 50.1522C34.2096 50.4718 34.2776 50.7759 34.4211 51.0565C34.5118 51.3449 34.6704 51.5944 34.8894 51.8126C35.0934 52.0387 35.3351 52.2024 35.6222 52.296C35.8941 52.4441 36.1811 52.5064 36.4984 52.4986C36.7023 52.4675 36.8987 52.4441 37.1027 52.4129C37.4879 52.3038 37.8203 52.1011 38.0998 51.8126C38.2206 51.6567 38.3339 51.5008 38.4548 51.3371C38.6588 50.9785 38.7645 50.581 38.7645 50.16Z" fill="white"/>
<path d="M38.7658 42.685C38.7658 42.0925 38.7658 41.5001 38.7658 40.9076C38.7658 40.2606 38.7281 39.598 38.8036 38.951C38.7734 39.1615 38.7507 39.3642 38.7205 39.5746C38.7734 39.1693 38.8716 38.7873 39.0227 38.4131C38.9471 38.6002 38.8716 38.7873 38.796 38.9744C38.9094 38.7094 39.0378 38.4521 39.1964 38.2105C39.3248 38.0156 39.5137 37.9064 39.0906 38.3352C39.1888 38.2338 39.2719 38.1169 39.3701 38.0156C39.4683 37.9142 39.5741 37.8207 39.6798 37.7193C39.9593 37.4621 39.2191 38.039 39.559 37.8207C39.8082 37.6648 40.05 37.5167 40.3143 37.3919C40.1331 37.4699 39.9518 37.5478 39.7705 37.6258C40.5107 37.3062 41.251 37.0256 41.9384 36.589C42.6031 36.1681 43.2376 35.6614 43.8042 35.1001C44.9599 33.9542 45.7757 32.5588 46.3573 31.0231C47.4526 28.1155 47.1051 24.6777 45.6397 21.9805C44.2498 19.4236 41.7722 17.467 39 16.7966C36.1296 16.1028 32.9193 16.6173 30.5096 18.4336C29.1802 19.4314 28.032 20.6709 27.254 22.1832C26.4382 23.7734 26.0076 25.5196 26 27.3203C25.9925 28.5442 27.05 29.7135 28.2662 29.6589C29.4974 29.6044 30.5247 28.63 30.5323 27.3203C30.5323 26.9228 30.5625 26.5252 30.6154 26.1354C30.5851 26.3459 30.5625 26.5486 30.5323 26.7591C30.638 26.0263 30.8269 25.3247 31.0988 24.6387C31.0233 24.8258 30.9477 25.0129 30.8722 25.2C31.0837 24.6933 31.333 24.21 31.6276 23.7579C31.6578 23.7111 31.8089 23.4305 31.8542 23.4227C31.7937 23.4305 31.4463 23.9449 31.7409 23.5786C31.9071 23.3681 32.0883 23.1654 32.2696 22.9783C32.4585 22.7834 32.6473 22.6041 32.8513 22.4326C32.9948 22.3157 33.2969 22.1364 32.7002 22.5496C32.8059 22.4716 32.9117 22.3859 33.025 22.3157C33.4631 22.0117 33.9314 21.7467 34.4224 21.5362C34.2412 21.6141 34.0599 21.6921 33.8786 21.77C34.5357 21.4894 35.2231 21.2945 35.9332 21.1854C35.7292 21.2166 35.5328 21.24 35.3289 21.2711C36.0918 21.162 36.8623 21.162 37.6252 21.2711C37.4213 21.24 37.2249 21.2166 37.0209 21.1854C37.7234 21.2867 38.4033 21.4816 39.0604 21.7622C38.8791 21.6843 38.6978 21.6063 38.5166 21.5284C39 21.7389 39.4683 21.9961 39.9064 22.3001C40.0122 22.3781 40.1179 22.456 40.2313 22.534C40.5334 22.7601 39.7327 22.113 40.1557 22.4794C40.3446 22.6431 40.5258 22.8146 40.6996 22.9939C40.8733 23.1732 41.0395 23.3603 41.1981 23.5552C41.5532 23.9917 40.9262 23.1654 41.1453 23.4772C41.2208 23.5864 41.2963 23.6955 41.3719 23.8124C41.6665 24.2646 41.9082 24.7479 42.1197 25.2468C42.0441 25.0597 41.9686 24.8726 41.8931 24.6855C42.165 25.3637 42.3463 26.0653 42.452 26.7903C42.4218 26.5798 42.3992 26.3771 42.369 26.1666C42.4672 26.9384 42.4672 27.7179 42.3765 28.4896C42.4067 28.2792 42.4294 28.0765 42.4596 27.866C42.3614 28.6066 42.1726 29.3159 41.8931 30.0019C41.9686 29.8149 42.0441 29.6278 42.1197 29.4407C41.9157 29.9396 41.6665 30.4229 41.3719 30.875C41.3114 30.9686 41.2208 31.1634 41.1301 31.2258C41.2057 31.1245 41.2812 31.0231 41.3568 30.9218C41.3114 30.9764 41.2661 31.0309 41.2283 31.0933C41.0622 31.3038 40.8884 31.4986 40.6996 31.6935C40.5183 31.8806 40.3219 32.0677 40.1179 32.2392C39.9744 32.3639 39.6723 32.5198 40.2464 32.1379C40.1255 32.2158 40.0197 32.3094 39.9064 32.3873C39.4683 32.6913 39 32.9408 38.5166 33.1591C38.6978 33.0811 38.8791 33.0032 39.0604 32.9252C38.4108 33.198 37.7536 33.4397 37.172 33.8606C36.4468 34.3829 35.903 34.952 35.3818 35.6926C34.6113 36.7995 34.2336 38.1949 34.2185 39.5513C34.2109 40.6036 34.2185 41.6638 34.2185 42.724C34.2185 43.9478 35.2609 45.1171 36.4846 45.0626C37.731 44.969 38.7658 43.9946 38.7658 42.685Z" fill="white" stroke="#94BE43" stroke-width="0.9"/>
</svg>
