<svg width="4" height="19" viewBox="0 0 4 19" fill="none" xmlns="http://www.w3.org/2000/svg">
<path d="M0 2.74121C0 1.63652 0.895782 0.741211 2 0.741211C3.10422 0.741211 4 1.63652 4 2.74121C4 3.8459 3.10505 4.74121 2 4.74121C0.894955 4.74121 0 3.8459 0 2.74121V2.74121Z" fill="#555555"/>
<path d="M0 9.74121C0 8.63652 0.894955 7.74121 2 7.74121C3.10505 7.74121 4 8.63652 4 9.74121C4 10.8459 3.10505 11.7412 2 11.7412C0.894955 11.7412 0 10.8459 0 9.74121Z" fill="#555555"/>
<path d="M0 16.7412C0 15.6365 0.894954 14.7412 2 14.7412C3.10505 14.7412 4 15.6365 4 16.7412C4 17.8459 3.10505 18.7412 2 18.7412C0.894954 18.7412 0 17.8459 0 16.7412Z" fill="#555555"/>
</svg>
