<svg width="20" height="20" viewBox="0 0 20 20" fill="none" xmlns="http://www.w3.org/2000/svg">
    <g clip-path="url(#clip0_5461_836)">
        <g clip-path="url(#clip1_5461_836)">
            <g clip-path="url(#clip2_5461_836)">
                <path
                    d="M12.8882 14.3336L9.99935 17.2224C9.00028 18.2215 7.79657 18.7211 6.38824 18.7211C4.9799 18.7211 3.7762 18.2215 2.77713 17.2224C1.77805 16.2234 1.27852 15.0197 1.27852 13.6113C1.27852 12.203 1.77805 10.9993 2.77713 10.0002L5.66602 7.11133L7.11046 8.55577L4.22157 11.4447C3.61972 12.0465 3.31879 12.7687 3.31879 13.6113C3.31879 14.4539 3.61972 15.1761 4.22157 15.778C4.82342 16.3798 5.54565 16.6808 6.38824 16.6808C7.23083 16.6808 7.95305 16.3798 8.55491 15.778L11.4438 12.8891L12.8882 14.3336ZM7.83268 13.6113L6.38824 12.1669L12.166 6.38911L13.6105 7.83355L7.83268 13.6113ZM14.3327 12.8891L12.8882 11.4447L15.7771 8.55577C16.379 7.95392 16.6799 7.2317 16.6799 6.38911C16.6799 5.54651 16.379 4.82429 15.7771 4.22244C15.1753 3.62059 14.4531 3.31966 13.6105 3.31966C12.7679 3.31966 12.0456 3.62059 11.4438 4.22244L8.55491 7.11133L7.11046 5.66688L9.99935 2.77799C10.9984 1.77892 12.2021 1.27938 13.6105 1.27938C15.0188 1.27938 16.2225 1.77892 17.2216 2.77799C18.2206 3.77707 18.7202 4.98077 18.7202 6.38911C18.7202 7.79744 18.2206 9.00114 17.2216 10.0002L14.3327 12.8891Z"
                    fill="white" />
            </g>
        </g>
    </g>
    <defs>
        <clipPath id="clip0_5461_836">
            <rect width="20" height="20" fill="white" />
        </clipPath>
        <clipPath id="clip1_5461_836">
            <rect width="20" height="20" fill="white" />
        </clipPath>
        <clipPath id="clip2_5461_836">
            <rect width="20" height="20" fill="white" />
        </clipPath>
    </defs>
</svg>