<svg width="72" height="73" viewBox="0 0 72 73" fill="none" xmlns="http://www.w3.org/2000/svg">
<circle cx="36" cy="36.1846" r="36" fill="#94BE43"/>
<path fill-rule="evenodd" clip-rule="evenodd" d="M38.9898 28.2909C38.5129 27.8095 38.1153 27.2489 37.8198 26.638C37.5593 26.0972 37.3795 25.5168 37.2881 24.9226C37.1952 24.3102 37.1952 23.6826 37.2881 23.0701C37.3795 22.476 37.5593 21.8956 37.8198 21.3548C38.3941 20.1619 39.36 19.1732 40.5376 18.5699C41.1165 18.2729 41.7426 18.0703 42.3855 17.9728C42.64 17.9331 42.8974 17.9149 43.1564 17.9057C43.3118 17.9027 43.3118 17.9027 43.4672 17.9057C43.7262 17.9149 43.9836 17.9331 44.2381 17.9728C44.8809 18.0703 45.5071 18.2729 46.086 18.5699C47.2636 19.1732 48.2295 20.1619 48.8038 21.3548C49.0644 21.8956 49.2441 22.476 49.3355 23.0701C49.4285 23.6826 49.4285 24.3102 49.3355 24.9226C49.2441 25.5168 49.0644 26.0972 48.8038 26.638C48.4854 27.2992 48.0467 27.901 47.515 28.4067C47.4952 28.425 47.4754 28.4448 47.4556 28.4631C48.8023 29.0146 50.0363 29.8372 51.0661 30.8671C52.2224 32.0234 53.1152 33.4356 53.659 34.9773C53.9317 35.7482 54.1161 36.551 54.209 37.363C54.2517 37.7347 54.2715 38.1064 54.2791 38.4797L54.2806 38.6138C54.276 38.7433 54.2623 38.8682 54.2227 38.9916C54.1145 39.3313 53.8571 39.6101 53.5296 39.7457C53.3787 39.8097 53.2233 39.8341 53.0619 39.8401H41.4488C41.3193 39.9834 41.1838 40.1235 41.0436 40.2576C40.9004 40.3947 40.7496 40.5257 40.5972 40.6506L40.6079 40.6537C42.4833 41.3422 44.1956 42.4544 45.5894 43.8833C46.9483 45.2742 48.001 46.9591 48.6469 48.7934C48.979 49.7349 49.2045 50.716 49.3172 51.7093C49.3705 52.1633 49.3964 52.6173 49.4041 53.0728L49.4056 53.2388C49.401 53.3836 49.3843 53.5207 49.334 53.6578C49.2136 53.996 48.9425 54.2671 48.6043 54.3905C48.4687 54.4408 48.3316 54.4591 48.1868 54.4652H23.8118C23.6686 54.4591 23.53 54.4408 23.3944 54.3905C23.0562 54.2671 22.785 53.996 22.6647 53.6578C22.6144 53.5207 22.5977 53.3835 22.5931 53.2388C22.5946 53.0682 22.5977 52.8991 22.6022 52.73C22.6236 52.2745 22.6601 51.8236 22.7241 51.3741C22.8612 50.387 23.1111 49.4165 23.4645 48.4841C24.1363 46.72 25.186 45.1036 26.5205 43.7675C27.8565 42.4329 29.4729 41.3833 31.2371 40.7115C31.292 40.6902 31.3468 40.6703 31.4017 40.6505C31.2493 40.5256 31.0985 40.3946 30.9553 40.2575C30.8152 40.1234 30.6796 39.9833 30.5501 39.8401H18.937C18.8076 39.8355 18.6842 39.8203 18.5592 39.7807C18.1586 39.6481 17.8463 39.3099 17.7503 38.8986C17.7183 38.76 17.7168 38.6213 17.7198 38.4797C17.7213 38.3395 17.7259 38.1978 17.7335 38.0577C17.8082 36.5632 18.1936 35.0885 18.8609 33.7478C19.5251 32.4087 20.4681 31.2082 21.6092 30.2439C22.4867 29.502 23.48 28.8987 24.5433 28.463C24.5235 28.4447 24.5037 28.4249 24.4839 28.4066C23.9522 27.9008 23.5134 27.2991 23.195 26.6379C22.9345 26.0971 22.7548 25.5166 22.6634 24.9225C22.5704 24.3101 22.5704 23.6824 22.6634 23.07C22.7548 22.4759 22.9345 21.8955 23.195 21.3546C23.7694 20.1618 24.7352 19.1731 25.9129 18.5698C26.4918 18.2727 27.1179 18.0701 27.7608 17.9726C28.0152 17.933 28.2727 17.9147 28.5317 17.9056C28.6871 17.9026 28.6871 17.9026 28.8425 17.9056C29.1014 17.9147 29.3589 17.933 29.6133 17.9726C30.2562 18.0701 30.8824 18.2728 31.4613 18.5698C32.6389 19.1731 33.6048 20.1618 34.1791 21.3546C34.4396 21.8955 34.6194 22.4759 34.7108 23.07C34.8037 23.6824 34.8037 24.3101 34.7108 24.9225C34.6194 25.5166 34.4396 26.0971 34.1791 26.6379C33.8836 27.2488 33.486 27.8094 33.0091 28.2908C33.5773 28.0349 34.1806 27.8536 34.7961 27.7515C35.1328 27.6952 35.4725 27.6662 35.8122 27.6556C35.9052 27.6525 35.9996 27.6525 36.0941 27.6525C36.4353 27.6601 36.7751 27.686 37.1117 27.7363C37.7592 27.8353 38.393 28.0227 38.9901 28.2908L38.9898 28.2909ZM35.8576 42.2791C35.4844 42.2867 35.1111 42.3065 34.7394 42.3492C33.9274 42.4421 33.1261 42.6264 32.3567 42.8976C31.0222 43.3683 29.7821 44.1011 28.7249 45.0411C27.5701 46.0648 26.6362 47.3293 25.9994 48.7339C25.6856 49.4286 25.4434 50.1583 25.2819 50.9033C25.2042 51.2613 25.1463 51.6223 25.1021 51.9864L25.0976 52.0275H46.9009C46.8841 51.8767 46.8628 51.7259 46.8415 51.5751C46.7836 51.2155 46.7135 50.8591 46.6236 50.5056C46.4439 49.8125 46.1971 49.1376 45.8863 48.4931C45.2358 47.1449 44.308 45.9338 43.1746 44.9542C42.1722 44.0843 41.0143 43.4003 39.7682 42.9433C39.0019 42.663 38.2051 42.4695 37.3977 42.3659C37.026 42.3187 36.6543 42.2928 36.2826 42.2806C36.1409 42.279 35.9992 42.2775 35.8575 42.279L35.8576 42.2791ZM35.9353 30.09C35.2269 30.1053 34.5276 30.2622 33.8878 30.5699C33.2876 30.8609 32.7498 31.2738 32.3141 31.7749C32.0048 32.1314 31.7489 32.5321 31.5539 32.9602C31.1167 33.9276 31.01 35.0321 31.2492 36.0649C31.3467 36.4915 31.5036 36.9028 31.7123 37.2867C31.9561 37.7346 32.2684 38.1429 32.6371 38.4933C33.0621 38.8986 33.5618 39.2276 34.1026 39.4577C34.683 39.7029 35.3076 39.8309 35.9353 39.84C36.5477 39.8477 37.1586 39.741 37.7299 39.5232C38.2631 39.3206 38.7567 39.0235 39.1894 38.6502C39.5733 38.3181 39.9038 37.9251 40.1689 37.4909C40.4051 37.1009 40.5863 36.6804 40.7052 36.2417C40.9885 35.1966 40.9139 34.0662 40.4919 33.0684C40.3076 32.6342 40.0607 32.229 39.7606 31.8664C39.3371 31.353 38.8085 30.9264 38.2159 30.6233C37.5867 30.3003 36.8951 30.1251 36.1882 30.0931C36.1044 30.0916 36.0206 30.09 35.9353 30.09L35.9353 30.09ZM42.8945 37.4025H51.7564C51.7366 37.27 51.7153 37.1374 51.6909 37.0064C51.5279 36.1838 51.2537 35.3901 50.8622 34.6481C49.8658 32.7606 48.1596 31.2829 46.1455 30.573C45.2695 30.2638 44.3509 30.1084 43.4231 30.0916C43.3119 30.0901 43.3119 30.0901 43.2007 30.0916C42.6629 30.1008 42.1267 30.1587 41.5996 30.2638C42.0292 30.7756 42.3887 31.3469 42.6644 31.9563C43.3211 33.4081 43.4825 35.0641 43.1245 36.6148C43.0636 36.8814 42.9859 37.1435 42.8945 37.4024L42.8945 37.4025ZM30.3993 30.2636C29.8721 30.1585 29.3359 30.1006 28.7981 30.0914C28.6869 30.0899 28.6869 30.0899 28.5757 30.0914C27.6479 30.1082 26.7293 30.2636 25.8533 30.5728C24.8798 30.9156 23.9719 31.4382 23.1842 32.1039C22.2671 32.8778 21.5176 33.8452 20.9965 34.9253C20.6309 35.684 20.3856 36.4914 20.2546 37.3217L20.2425 37.4024H29.1044C28.9932 37.0871 28.9033 36.7656 28.8363 36.4365C28.5408 34.9954 28.6901 33.4734 29.2629 32.1192C29.5371 31.4687 29.9088 30.8593 30.3582 30.314C30.372 30.2972 30.3857 30.2804 30.3994 30.2637L30.3993 30.2636ZM28.5925 20.3416C28.4371 20.3477 28.2817 20.3583 28.1293 20.3827C27.7454 20.4406 27.3707 20.5625 27.0249 20.7392C26.0179 21.2556 25.2866 22.2337 25.0886 23.3473C25.017 23.7449 25.0124 24.1547 25.0733 24.5539C25.1267 24.9089 25.2348 25.2562 25.3917 25.5792C25.5822 25.9768 25.8457 26.3394 26.1657 26.6425C26.4841 26.9472 26.8588 27.1925 27.2641 27.3647C27.715 27.5551 28.1994 27.6526 28.6869 27.6526C29.1744 27.6526 29.6589 27.5551 30.1098 27.3647C30.5151 27.1925 30.8898 26.9473 31.2082 26.6425C31.5281 26.3394 31.7917 25.9768 31.9821 25.5792C32.139 25.2562 32.2472 24.9088 32.3005 24.5539C32.3615 24.1548 32.3569 23.745 32.2853 23.3473C32.0872 22.2337 31.356 21.2556 30.349 20.7392C30.0032 20.5625 29.6284 20.4406 29.2445 20.3827C29.0922 20.3583 28.9368 20.3477 28.7814 20.3416C28.687 20.3401 28.6885 20.3401 28.5925 20.3416H28.5925ZM43.2175 20.3416C43.0621 20.3477 42.9067 20.3583 42.7543 20.3827C42.3704 20.4406 41.9957 20.5625 41.6499 20.7392C40.6429 21.2556 39.9116 22.2337 39.7136 23.3473C39.642 23.7449 39.6374 24.1547 39.6983 24.5539C39.7517 24.9089 39.8598 25.2562 40.0167 25.5792C40.2072 25.9768 40.4707 26.3394 40.7907 26.6425C41.1091 26.9472 41.4838 27.1925 41.8891 27.3647C42.34 27.5551 42.8244 27.6526 43.3119 27.6526C43.7994 27.6526 44.2839 27.5551 44.7348 27.3647C45.1401 27.1925 45.5148 26.9473 45.8332 26.6425C46.1531 26.3394 46.4167 25.9768 46.6071 25.5792C46.764 25.2562 46.8722 24.9088 46.9255 24.5539C46.9865 24.1548 46.9819 23.745 46.9103 23.3473C46.7122 22.2337 45.981 21.2556 44.974 20.7392C44.6282 20.5625 44.2534 20.4406 43.8695 20.3827C43.7172 20.3583 43.5618 20.3477 43.4064 20.3416C43.312 20.3401 43.3135 20.3401 43.2175 20.3416H43.2175Z" fill="white"/>
</svg>
