<svg width="32" height="32" viewBox="0 0 32 32" fill="none" xmlns="http://www.w3.org/2000/svg">
<circle cx="16" cy="16" r="16" fill="#94BE43"/>
<path fill-rule="evenodd" clip-rule="evenodd" d="M19.3353 6.71171C19.3353 7.16971 19.4882 7.62012 19.7661 7.97933L21.3353 9.99837L22.9037 7.98031C23.1821 7.62012 23.3353 7.16971 23.3353 6.71171C23.3353 5.58323 22.438 4.66504 21.3353 4.66504C20.2323 4.66504 19.3353 5.58323 19.3353 6.71171ZM20.5898 6.71181C20.5898 6.29098 20.9241 5.94889 21.3354 5.94889C21.7464 5.94889 22.0809 6.29098 22.0809 6.71181C22.0809 7.13239 21.7464 7.47473 21.3354 7.47473C20.9241 7.47473 20.5898 7.13239 20.5898 6.71181ZM7.33529 18.0454C7.33529 18.5034 7.48821 18.9538 7.76611 19.313L9.33529 21.332L10.9037 19.314C11.1821 18.9538 11.3353 18.5034 11.3353 18.0454C11.3353 16.9169 10.438 15.9987 9.33529 15.9987C8.2323 15.9987 7.33529 16.9169 7.33529 18.0454ZM8.58984 18.0455C8.58984 17.6246 8.92413 17.2826 9.33536 17.2826C9.74636 17.2826 10.0809 17.6246 10.0809 18.0455C10.0809 18.4661 9.74636 18.8084 9.33536 18.8084C8.92413 18.8084 8.58984 18.4661 8.58984 18.0455ZM11.2209 24.666C10.9462 25.4425 10.2055 25.9987 9.33496 25.9987C8.23039 25.9987 7.33496 25.1033 7.33496 23.9987C7.33496 22.8941 8.23039 21.9987 9.33496 21.9987C10.206 21.9987 10.947 22.5555 11.2214 23.3327H18.6676C19.7722 23.3327 20.6676 22.4373 20.6676 21.3327C20.6676 20.2281 19.7722 19.3327 18.6676 19.3327H17.001C14.9759 19.3327 13.3343 17.6911 13.3343 15.666C13.3343 13.641 14.9759 11.9993 17.001 11.9993H18.7519C19.0478 10.849 20.092 9.99902 21.3346 9.99902C22.8074 9.99902 24.0013 11.1929 24.0013 12.6657C24.0013 14.1384 22.8074 15.3324 21.3346 15.3324C20.0922 15.3324 19.0482 14.4827 18.7521 13.3327H17.001C15.7123 13.3327 14.6676 14.3774 14.6676 15.666C14.6676 16.9547 15.7123 17.9993 17.001 17.9993H18.6676C20.5086 17.9993 22.001 19.4917 22.001 21.3327C22.001 23.1736 20.5086 24.666 18.6676 24.666H11.2209ZM20.0013 12.6657C20.0013 11.9293 20.5983 11.3324 21.3346 11.3324C22.071 11.3324 22.668 11.9293 22.668 12.6657C22.668 13.4021 22.071 13.999 21.3346 13.999C20.5983 13.999 20.0013 13.4021 20.0013 12.6657Z" fill="white"/>
</svg>
