<svg width="24" height="24" viewBox="0 0 24 24" fill="none" xmlns="http://www.w3.org/2000/svg">
  <path
    fill-rule="evenodd"
    clip-rule="evenodd"
    d="M22.619 10.7143H21.3459C20.7967 6.40546 17.4041 3.01278 13.0952 2.46364V1.19048C13.0952 0.532994 12.5622 0 11.9048 0C11.2473 0 10.7143 0.532994 10.7143 1.19048V2.46364C6.40546 3.01278 3.01278 6.40546 2.46364 10.7143H1.19048C0.532994 10.7143 0 11.2473 0 11.9048C0 12.5622 0.532994 13.0952 1.19048 13.0952H2.46364C3.01278 17.4041 6.40546 20.7967 10.7143 21.3459V22.619C10.7143 23.2765 11.2473 23.8095 11.9048 23.8095C12.5622 23.8095 13.0952 23.2765 13.0952 22.619V21.3459C17.4041 20.7967 20.7967 17.4041 21.3459 13.0952H22.619C23.2765 13.0952 23.8095 12.5622 23.8095 11.9048C23.8095 11.2473 23.2765 10.7143 22.619 10.7143ZM11.9044 9.5238C10.5894 9.5238 9.52344 10.5898 9.52344 11.9048C9.52344 13.2197 10.5894 14.2857 11.9044 14.2857C13.2194 14.2857 14.2853 13.2197 14.2853 11.9048C14.2836 10.5905 13.2186 9.52551 11.9044 9.5238ZM4.7619 11.9048C4.7619 15.8497 7.95987 19.0476 11.9048 19.0476C15.8479 19.0433 19.0433 15.8479 19.0476 11.9048C19.0476 7.95987 15.8497 4.7619 11.9048 4.7619C7.95987 4.7619 4.7619 7.95987 4.7619 11.9048Z"
    fill="currentColor"
  />
</svg>
