<svg width="23" height="20" viewBox="0 0 23 20" fill="none" xmlns="http://www.w3.org/2000/svg">
  <path
    d="M10.9 20L15.45 8H17.55L22.1 20H20L18.95 16.95H14.1L13 20H10.9ZM14.7 15.2H18.3L16.55 10.25H16.45L14.7 15.2ZM3 17L1.6 15.6L6.65 10.55C6.01667 9.85 5.46267 9.125 4.988 8.375C4.51267 7.625 4.1 6.83333 3.75 6H5.85C6.15 6.6 6.471 7.14167 6.813 7.625C7.15433 8.10833 7.56667 8.61667 8.05 9.15C8.78333 8.35 9.39167 7.52933 9.875 6.688C10.3583 5.846 10.7667 4.95 11.1 4H0V2H7V0H9V2H16V4H13.1C12.75 5.18333 12.275 6.33333 11.675 7.45C11.075 8.56667 10.3333 9.61667 9.45 10.6L11.85 13.05L11.1 15.1L8 12L3 17Z"
    fill="currentColor"
  />
</svg>
