<svg width="26" height="27" viewBox="0 0 26 27" fill="none" xmlns="http://www.w3.org/2000/svg">
<path fill-rule="evenodd" clip-rule="evenodd" d="M4.4819 16.1338C4.61583 16.1338 4.81672 16.2008 4.95065 16.3347L11.0444 21.9597C11.3123 22.2275 11.3792 22.6293 11.1114 22.8972L9.57118 24.5713C8.63368 25.5758 7.36136 26.1115 6.02208 26.1115C4.88368 26.1115 3.67833 25.7097 2.74083 24.8391C1.80333 23.9686 1.26761 22.7633 1.20065 21.4909C1.13368 20.2186 1.60243 18.9463 2.47297 18.0088L4.01315 16.3347C4.14708 16.2008 4.281 16.1338 4.4819 16.1338ZM3.67805 23.9016C5.0843 25.2409 7.29412 25.107 8.63341 23.7007L9.70484 22.4284L4.54859 17.674L3.47716 18.8793C2.80752 19.6159 2.4727 20.4865 2.53966 21.424C2.60662 22.4284 3.00841 23.232 3.67805 23.9016Z" fill="white"/>
<path d="M4.95065 16.3347L4.59709 16.6882L4.60416 16.6953L4.61151 16.7021L4.95065 16.3347ZM11.0444 21.9597L11.398 21.6061L11.3909 21.5991L11.3835 21.5923L11.0444 21.9597ZM11.1114 22.8972L10.7578 22.5436L10.7504 22.551L10.7434 22.5587L11.1114 22.8972ZM9.57118 24.5713L9.93672 24.9125L9.93915 24.9098L9.57118 24.5713ZM2.74083 24.8391L3.08105 24.4727L2.74083 24.8391ZM1.20065 21.4909L0.701338 21.5172L1.20065 21.4909ZM2.47297 18.0088L2.83937 18.349L2.84093 18.3473L2.47297 18.0088ZM4.01315 16.3347L3.65959 15.9811L3.65223 15.9885L3.64518 15.9962L4.01315 16.3347ZM8.63341 23.7007L8.99548 24.0456L9.00602 24.0345L9.01587 24.0228L8.63341 23.7007ZM3.67805 23.9016L3.32439 24.2553L3.33322 24.2637L3.67805 23.9016ZM9.70484 22.4284L10.0873 22.7505L10.3952 22.3849L10.0438 22.0608L9.70484 22.4284ZM4.54859 17.674L4.88753 17.3064L4.51318 16.9612L4.17488 17.3418L4.54859 17.674ZM3.47716 18.8793L3.84715 19.2157L3.85086 19.2115L3.47716 18.8793ZM2.53966 21.424L3.03856 21.3907L3.03839 21.3883L2.53966 21.424ZM5.3042 15.9811C5.07037 15.7473 4.73951 15.6338 4.4819 15.6338V16.6338C4.47533 16.6338 4.47814 16.6332 4.4898 16.6356C4.50072 16.6379 4.51493 16.642 4.53058 16.6483C4.56441 16.6618 4.58701 16.6781 4.59709 16.6882L5.3042 15.9811ZM11.3835 21.5923L5.28979 15.9673L4.61151 16.7021L10.7053 22.3271L11.3835 21.5923ZM11.4649 23.2507C11.9911 22.7246 11.7914 21.9996 11.398 21.6061L10.6908 22.3132C10.754 22.3764 10.7774 22.4401 10.7813 22.4782C10.783 22.4958 10.7808 22.5069 10.7785 22.5135C10.7765 22.5193 10.772 22.5295 10.7578 22.5436L11.4649 23.2507ZM9.93915 24.9098L11.4793 23.2357L10.7434 22.5587L9.20322 24.2328L9.93915 24.9098ZM6.02208 26.6115C7.4975 26.6115 8.90298 26.02 9.93671 24.9124L9.20566 24.2301C8.36438 25.1315 7.22523 25.6115 6.02208 25.6115V26.6115ZM2.4006 25.2055C3.43934 26.1701 4.76996 26.6115 6.02208 26.6115V25.6115C4.99741 25.6115 3.91731 25.2493 3.08105 24.4727L2.4006 25.2055ZM0.701338 21.5172C0.774757 22.9122 1.36281 24.2419 2.4006 25.2055L3.08105 24.4727C2.24384 23.6953 1.76047 22.6143 1.69996 21.4647L0.701338 21.5172ZM2.10657 17.6686C1.14552 18.7035 0.627143 20.1075 0.701338 21.5172L1.69996 21.4647C1.64022 20.3297 2.05935 19.189 2.83937 18.349L2.10657 17.6686ZM3.64518 15.9962L2.105 17.6703L2.84093 18.3473L4.38111 16.6732L3.64518 15.9962ZM4.4819 15.6338C4.32311 15.6338 4.16843 15.6608 4.01934 15.7271C3.87242 15.7924 3.75607 15.8846 3.65959 15.9811L4.3667 16.6882C4.40415 16.6508 4.42173 16.6426 4.42548 16.6409C4.42706 16.6402 4.43979 16.6338 4.4819 16.6338V15.6338ZM8.27134 23.3559C7.10783 24.5776 5.2141 24.6741 4.02288 23.5396L3.33322 24.2637C4.9545 25.8078 7.48042 25.6364 8.99548 24.0456L8.27134 23.3559ZM9.32238 22.1063L8.25095 23.3787L9.01587 24.0228L10.0873 22.7505L9.32238 22.1063ZM4.20965 18.0415L9.3659 22.796L10.0438 22.0608L4.88753 17.3064L4.20965 18.0415ZM3.85086 19.2115L4.92229 18.0061L4.17488 17.3418L3.10346 18.5471L3.85086 19.2115ZM3.03839 21.3883C2.98234 20.6036 3.25775 19.864 3.84713 19.2156L3.10719 18.543C2.35729 19.3679 1.96305 20.3693 2.04093 21.4596L3.03839 21.3883ZM4.03161 23.5481C3.44101 22.9575 3.09686 22.2653 3.03855 21.3907L2.04077 21.4572C2.11639 22.5915 2.57581 23.5065 3.3245 24.2552L4.03161 23.5481Z" fill="white"/>
<path fill-rule="evenodd" clip-rule="evenodd" d="M17.4735 1.4019C19.5494 0.866187 21.4914 1.4019 23.0316 2.80815C24.5717 4.2144 25.2414 6.0894 24.9066 8.23226C24.3709 11.9153 21.1566 15.2635 18.411 16.6028C16.4021 17.5403 15.1298 18.6117 14.3932 19.3483C14.0584 19.6832 13.5896 19.884 13.1209 19.884C12.7191 19.884 12.2503 19.7501 11.9155 19.4153L7.42889 15.3305C6.75925 14.6608 6.69228 13.5894 7.29496 12.8528C7.9646 12.1162 8.9021 10.7769 9.70568 8.63404C10.7771 5.75458 13.8575 2.27244 17.4735 1.4019ZM17.8753 15.3974C20.353 14.1921 23.1655 11.1117 23.6342 8.03137C23.8351 6.35726 23.3664 4.95101 22.0941 3.87958C21.1566 3.00904 20.0851 2.60726 18.9467 2.60726C18.545 2.60726 18.1432 2.67422 17.7414 2.74119C14.728 3.41083 11.9155 6.55815 10.911 9.10279C10.0405 11.3796 9.03603 12.8528 8.29943 13.7233C8.1655 13.8573 8.1655 14.1921 8.36639 14.326L12.853 18.4108C12.9869 18.6117 13.2548 18.6117 13.4557 18.4108C14.2592 17.6073 15.6655 16.4689 17.8753 15.3974Z" fill="white"/>
<path d="M17.4735 1.4019L17.5906 1.88808L17.5985 1.88604L17.4735 1.4019ZM24.9066 8.23226L24.4125 8.15507L24.4118 8.16029L24.9066 8.23226ZM18.411 16.6028L18.6225 17.056L18.6302 17.0522L18.411 16.6028ZM14.3932 19.3483L14.0396 18.9948H14.0396L14.3932 19.3483ZM11.9155 19.4153L12.2691 19.0617L12.2608 19.0535L12.2521 19.0456L11.9155 19.4153ZM7.42889 15.3305L7.07534 15.684L7.08362 15.6923L7.09228 15.7002L7.42889 15.3305ZM7.29496 12.8528L6.92499 12.5165L6.91623 12.5261L6.90798 12.5362L7.29496 12.8528ZM9.70568 8.63404L10.1738 8.80961L10.1743 8.80841L9.70568 8.63404ZM23.6342 8.03137L24.1286 8.10659L24.1297 8.09878L24.1307 8.09094L23.6342 8.03137ZM17.8753 15.3974L18.0935 15.8473L18.0941 15.8471L17.8753 15.3974ZM22.0941 3.87958L21.7538 4.24598L21.7627 4.25423L21.772 4.26204L22.0941 3.87958ZM17.7414 2.74119L17.6592 2.24799L17.646 2.25019L17.6329 2.25309L17.7414 2.74119ZM10.911 9.10279L10.4459 8.9192L10.444 8.92423L10.911 9.10279ZM8.29943 13.7233L8.65298 14.0769L8.66769 14.0622L8.68112 14.0463L8.29943 13.7233ZM8.36639 14.326L8.703 13.9563L8.67512 13.9309L8.64374 13.91L8.36639 14.326ZM12.853 18.4108L13.269 18.1335L13.235 18.0824L13.1896 18.0411L12.853 18.4108ZM13.4557 18.4108L13.1021 18.0573H13.1021L13.4557 18.4108ZM23.3687 2.43891C21.7092 0.923752 19.5951 0.338031 17.3486 0.917763L17.5985 1.88604C19.5038 1.39434 21.2735 1.88005 22.6944 3.17739L23.3687 2.43891ZM25.4006 8.30945C25.761 6.00273 25.0341 3.9595 23.3687 2.43891L22.6944 3.17739C24.1094 4.46931 24.7218 6.17607 24.4126 8.15507L25.4006 8.30945ZM18.6302 17.0522C20.0736 16.3481 21.6184 15.129 22.8725 13.6154C24.1264 12.1022 25.1167 10.2615 25.4014 8.30423L24.4118 8.16029C24.1608 9.88604 23.2761 11.561 22.1025 12.9774C20.9291 14.3935 19.494 15.5182 18.1918 16.1534L18.6302 17.0522ZM14.7467 19.7019C15.4491 18.9995 16.6746 17.9649 18.6225 17.0559L18.1996 16.1497C16.1296 17.1157 14.8105 18.2239 14.0396 18.9948L14.7467 19.7019ZM13.1209 20.384C13.7276 20.384 14.322 20.1266 14.7467 19.7019L14.0396 18.9948C13.7947 19.2397 13.4516 19.384 13.1209 19.384V20.384ZM11.5619 19.7688C12.0132 20.2201 12.6224 20.384 13.1209 20.384V19.384C12.8157 19.384 12.4874 19.2801 12.2691 19.0617L11.5619 19.7688ZM7.09228 15.7002L11.5789 19.785L12.2521 19.0456L7.7655 14.9608L7.09228 15.7002ZM6.90798 12.5362C6.13884 13.4762 6.22834 14.837 7.07534 15.684L7.78244 14.9769C7.29016 14.4846 7.24573 13.7026 7.68194 13.1694L6.90798 12.5362ZM9.23751 8.45848C8.45471 10.546 7.54927 11.8298 6.92499 12.5165L7.66493 13.1891C8.37994 12.4026 9.3495 11.0079 10.1738 8.80961L9.23751 8.45848ZM17.3565 0.91579C15.4364 1.37805 13.6851 2.52513 12.284 3.90888C10.8829 5.29272 9.80129 6.94333 9.23707 8.45968L10.1743 8.80841C10.6815 7.4453 11.6758 5.9151 12.9867 4.62037C14.2977 3.32555 15.8946 2.29629 17.5906 1.88801L17.3565 0.91579ZM23.1399 7.95614C22.9231 9.38077 22.156 10.8397 21.1216 12.1004C20.0882 13.3598 18.8205 14.3816 17.6566 14.9478L18.0941 15.8471C19.4078 15.2079 20.7852 14.0868 21.8947 12.7347C23.0031 11.3837 23.8766 9.76232 24.1286 8.10659L23.1399 7.95614ZM21.772 4.26204C22.8991 5.21119 23.3213 6.44268 23.1378 7.97179L24.1307 8.09094C24.349 6.27184 23.8337 4.69082 22.4161 3.49712L21.772 4.26204ZM18.9467 3.10726C19.9564 3.10726 20.9069 3.45957 21.7538 4.24598L22.4343 3.51318C21.4062 2.55852 20.2139 2.10726 18.9467 2.10726V3.10726ZM17.8236 3.23438C18.2327 3.16619 18.5934 3.10726 18.9467 3.10726V2.10726C18.4965 2.10726 18.0536 2.18225 17.6592 2.24799L17.8236 3.23438ZM11.3761 9.28638C11.8494 8.0874 12.7612 6.72148 13.9239 5.57488C15.0889 4.42615 16.4653 3.53695 17.8499 3.22928L17.6329 2.25309C16.0041 2.61506 14.4676 3.63435 13.2218 4.86285C11.9738 6.09348 10.9771 7.57355 10.446 8.91921L11.3761 9.28638ZM8.68112 14.0463C9.4533 13.1337 10.487 11.6119 11.3781 9.28136L10.444 8.92423C9.59402 11.1473 8.61877 12.5719 7.91773 13.4004L8.68112 14.0463ZM8.64374 13.91C8.67537 13.9311 8.69222 13.9559 8.69956 13.9706C8.7031 13.9777 8.70468 13.9828 8.70534 13.9853C8.70601 13.9878 8.70608 13.989 8.70608 13.989C8.70608 13.9891 8.70611 13.9892 8.70603 13.99C8.70595 13.9907 8.70561 13.9937 8.70405 13.9988C8.70199 14.0057 8.69122 14.0386 8.65298 14.0769L7.94587 13.3698C7.74485 13.5708 7.69359 13.8498 7.70862 14.0603C7.72444 14.2817 7.82335 14.5649 8.08904 14.742L8.64374 13.91ZM13.1896 18.0411L8.703 13.9563L8.02978 14.6957L12.5164 18.7806L13.1896 18.0411ZM13.1021 18.0573C13.0782 18.0812 13.0829 18.0615 13.1292 18.0615C13.1527 18.0615 13.1818 18.0672 13.2107 18.0827C13.24 18.0983 13.259 18.1184 13.269 18.1335L12.437 18.6882C12.5973 18.9286 12.8543 19.0615 13.1292 19.0615C13.3932 19.0615 13.6322 18.9414 13.8092 18.7644L13.1021 18.0573ZM17.6572 14.9475C15.3967 16.0435 13.9448 17.2146 13.1021 18.0573L13.8092 18.7644C14.5737 17.9999 15.9343 16.8942 18.0935 15.8473L17.6572 14.9475Z" fill="white"/>
</svg>
