<svg width="24" height="24" viewBox="0 0 24 24" fill="none" xmlns="http://www.w3.org/2000/svg">
<rect width="23.9999" height="23.9999" fill="#4489CE"/>
<g clip-path="url(#clip0_3668_26842)">
<path fill-rule="evenodd" clip-rule="evenodd" d="M8.61444 5.9723C8.54174 5.97339 8.47011 6.00431 8.41966 6.05694C8.3692 6.10903 8.34045 6.18228 8.34153 6.25499C8.33773 10.2782 8.34153 14.462 8.34153 17.9226C8.3399 17.9964 8.3692 18.0701 8.42075 18.1228C8.47229 18.1754 8.545 18.2063 8.61879 18.2063C8.69258 18.2063 8.76529 18.1754 8.81683 18.1228C8.86838 18.0701 8.89768 17.9964 8.89605 17.9226V11.4512H15.5621C15.618 11.4512 15.6734 11.4339 15.7189 11.4024C15.7645 11.3709 15.8009 11.3248 15.8209 11.2727C15.841 11.2206 15.8448 11.1626 15.8318 11.1078C15.8188 11.0535 15.7889 11.0031 15.7477 10.9656L13.7027 9.11381L15.7492 7.23103C15.7899 7.19359 15.8192 7.14313 15.8322 7.08888C15.8447 7.03462 15.8409 6.97656 15.8208 6.92448C15.8008 6.87239 15.765 6.82681 15.7188 6.79534C15.6733 6.76387 15.6179 6.74651 15.562 6.74651H8.89595V6.25385C8.89704 6.17951 8.86719 6.10518 8.81456 6.0531C8.76248 6.00046 8.68814 5.97062 8.61435 5.97171L8.61444 5.9723Z" fill="white"/>
</g>
<defs>
<clipPath id="clip0_3668_26842">
<rect width="13.89" height="13.89" fill="white" transform="translate(5.14453 5.14453)"/>
</clipPath>
</defs>
</svg>
